<svg xmlns="http://www.w3.org/2000/svg" width="137" height="32" viewBox="0 0 137 32" fill="none"><path d="M41.0893 2.06013V9.36169H38.6554V2.06013H36.6553V0H43.0871V2.06013H41.0893Z" fill="black"/><path d="M46.9285 3.61272H50.442V0H52.8759V9.36169H50.442V5.49982H46.9285V9.36169H44.4946V0H46.9285V3.61272Z" fill="black"/><path d="M59.6076 2.06013H56.7146V3.62425H59.4461V5.68669H56.7146V7.30157H59.6076V9.36169H54.2808V0H59.6076V2.06013Z" fill="black"/><path d="M36.6323 10.4736H44.7436C46.67 10.4736 48.1326 10.9373 49.1315 11.8624C50.1304 12.7875 50.631 14.121 50.631 15.8627C50.631 16.917 50.4419 17.7937 50.0612 18.488C49.6806 19.1824 49.1038 19.7707 48.3264 20.2529C49.1038 20.4028 49.7659 20.6289 50.3127 20.9334C50.8594 21.238 51.3024 21.614 51.6461 22.0592C51.9875 22.5045 52.2344 23.0051 52.382 23.5588C52.5297 24.1148 52.6035 24.7076 52.6035 25.3374C52.6035 26.3179 52.4328 27.1899 52.089 27.9489C51.7453 28.7079 51.2654 29.347 50.6449 29.866C50.0243 30.3851 49.2699 30.7727 48.3817 31.0334C47.4935 31.2941 46.4923 31.4232 45.3827 31.4232H36.6323V10.4736ZM42.0768 18.6957H43.0757C44.7782 18.6957 45.6318 18.0197 45.6318 16.6678C45.6318 15.316 44.7806 14.64 43.0757 14.64H42.0768V18.6957ZM42.0768 27.1946H43.2718C44.6421 27.1946 45.6226 27.0192 46.2155 26.6663C46.8084 26.3133 47.1037 25.7504 47.1037 24.9729C47.1037 24.1955 46.8084 23.6303 46.2155 23.2796C45.6226 22.9267 44.6421 22.7513 43.2718 22.7513H42.0768V27.1946Z" fill="black"/><path d="M71.5784 31.4163H64.8005L59.6075 23.3627V31.4163H54.1631V10.4736H62.6343C63.8016 10.4736 64.819 10.6443 65.6887 10.9881C66.5584 11.3318 67.2759 11.7978 67.8411 12.3907C68.4063 12.9836 68.8308 13.6688 69.1192 14.4462C69.4052 15.2237 69.5506 16.0565 69.5506 16.9447C69.5506 18.5388 69.1653 19.8284 68.3971 20.8204C67.6289 21.8124 66.4938 22.4837 64.9943 22.8344L71.5784 31.4163ZM59.6075 19.8353H60.6341C61.7069 19.8353 62.5328 19.6139 63.1049 19.1686C63.6793 18.7234 63.9654 18.0866 63.9654 17.2515C63.9654 16.4187 63.6793 15.7797 63.1049 15.3344C62.5305 14.8915 61.7069 14.6677 60.6341 14.6677H59.6075V19.8353Z" fill="black"/><path d="M78.0377 10.4736V31.4163H72.5933V10.4736H78.0377Z" fill="black"/><path d="M80.9492 10.4736H89.0052C90.4309 10.4736 91.7689 10.7597 93.0193 11.3341C94.2697 11.9086 95.3609 12.6722 96.2975 13.625C97.2318 14.58 97.9677 15.6897 98.5053 16.9585C99.0428 18.2274 99.3104 19.5562 99.3104 20.945C99.3104 22.3153 99.0474 23.6349 98.5191 24.9037C97.9908 26.1726 97.2595 27.2891 96.3252 28.2512C95.3909 29.2132 94.2974 29.9814 93.047 30.5558C91.7966 31.1303 90.4493 31.4163 89.0052 31.4163H80.9492V10.4736ZM86.3937 26.807H87.644C88.5876 26.807 89.4296 26.6593 90.1725 26.3617C90.913 26.0665 91.5382 25.6581 92.0481 25.139C92.5579 24.62 92.9455 24.004 93.2154 23.2912C93.483 22.5783 93.6191 21.7962 93.6191 20.945C93.6191 20.1122 93.4807 19.3347 93.2015 18.6126C92.9247 17.8905 92.5302 17.27 92.0204 16.7509C91.5105 16.2318 90.8853 15.8258 90.1448 15.5282C89.4043 15.2329 88.5714 15.083 87.644 15.083H86.3937V26.807Z" fill="black"/><path d="M112.14 19.6945H122.943C122.943 20.8042 122.897 21.8147 122.805 22.7213C122.712 23.6279 122.528 24.47 122.249 25.2497C121.861 26.3409 121.333 27.3099 120.666 28.1519C119.999 28.9939 119.217 29.6976 118.32 30.2628C117.423 30.828 116.435 31.2594 115.362 31.5547C114.287 31.85 113.159 31.9999 111.974 31.9999C110.345 31.9999 108.857 31.7323 107.516 31.1948C106.174 30.6573 105.02 29.9029 104.058 28.9317C103.096 27.9604 102.347 26.7931 101.809 25.432C101.272 24.0709 101.004 22.5667 101.004 20.9195C101.004 19.2908 101.267 17.7959 101.795 16.4348C102.323 15.0737 103.073 13.911 104.044 12.949C105.016 11.987 106.188 11.2372 107.558 10.6997C108.928 10.1621 110.456 9.89453 112.142 9.89453C114.327 9.89453 116.244 10.3675 117.891 11.311C119.538 12.2546 120.844 13.7172 121.808 15.6989L116.643 17.8374C116.161 16.6886 115.536 15.865 114.767 15.3644C113.999 14.8637 113.125 14.6146 112.142 14.6146C111.328 14.6146 110.587 14.7669 109.92 15.0714C109.254 15.3759 108.684 15.8119 108.213 16.3771C107.74 16.9423 107.371 17.6229 107.104 18.4188C106.834 19.2147 106.7 20.1052 106.7 21.0857C106.7 21.9738 106.815 22.7974 107.048 23.5587C107.279 24.3177 107.627 24.9752 108.089 25.5312C108.552 26.0872 109.124 26.5186 109.81 26.8231C110.495 27.1276 111.291 27.2799 112.2 27.2799C112.737 27.2799 113.254 27.2199 113.755 27.0999C114.255 26.98 114.703 26.7862 115.102 26.5163C115.499 26.2487 115.829 25.9003 116.087 25.4735C116.345 25.049 116.523 24.53 116.615 23.9186H112.14V19.6945Z" fill="black"/><path d="M136.935 15.0853H130.464V18.5849H136.575V23.1966H130.464V26.807H136.935V31.4163H125.02V10.4736H136.935V15.0853Z" fill="black"/><path d="M26.3941 31.437H5.01997C2.24699 31.437 0 29.19 0 26.417V5.04292C0 2.26994 2.24699 0.0229492 5.01997 0.0229492H26.3941C29.167 0.0229492 31.414 2.26994 31.414 5.04292V26.417C31.414 29.19 29.167 31.437 26.3941 31.437Z" fill="#F5333F"/><path d="M5.23438 15.7312V31.4371H10.4712V20.9657H20.9425V31.4371H26.1794V15.7312H5.23438Z" fill="white"/></svg>